<?xml version="1.0" encoding="utf-8"?>
<!-- KNAKKE® Logo (ohne DESIGNER) - für dunkle Hintergründe -->
<svg version="1.1" xmlns="http://www.w3.org/2000/svg" viewBox="0 0 265 53">
<!-- KNAKKE Zickzack-Schriftzug -->
<g>
	<path fill="#FFFFFF" d="M210.655,0.14h40.61l-2.782,13.404h-25.273l-1.092,5.194h24.412l-2.782,13.404h-24.482
		l-1.683,7.293h27.389l-2.838,13.404h-47.173l-10.809-20.835l-5.832,5.099l-3.291,15.736h-19.978l-10.809-20.835l-5.832,5.099
		l-3.291,15.736h-21.707l-1.571-10.425H97.149L91.491,52.84H70.212L60.169,27.856l-5.22,24.984H35.323L24.513,32.006l-5.832,5.099
		L15.39,52.84H0L11.007,0.14h15.358l-3.125,14.968L39.528,0.14h24.915l10.073,24.892L79.721,0.14h14.643L88.18,29.785L104.938,0.14
		h14.744l4.834,29.784l6.22-29.784h15.358l-3.125,14.968L159.258,0.14h26.747l-3.125,14.968L199.168,0.14L210.655,0.14
		L210.655,0.14z M208.435,10.769l-12.889,11.265l7.607,14.031L208.435,10.769L208.435,10.769z M168.405,10.875l-12.768,11.159
		l7.535,13.899L168.405,10.875z M49.107,10.497L35.906,22.034l7.795,14.377L49.107,10.497z M109.834,29.043l-1.176-8.165
		l-4.897,8.165H109.834z"/>
</g>
<!-- KNAKKE Textzeile darunter -->
<g transform="matrix(1 0 0 1 -100.687 -134.452)">
	<g>
		<path fill="#FFFFFF" d="M104.085,184.535l9.848-47.183h9.72l-4.184,20.051l21.821-20.051h13.003l-21.177,18.506l15.545,28.677
			h-10.975l-11.651-22.465l-9.173,8.014l-3.025,14.451H104.085z"/>
	</g>
	<g>
		<path fill="#FFFFFF" d="M181.81,184.535h-9.044l-12.745-31.702l-6.631,31.702h-9.044l9.848-47.183h9.076l12.777,31.573
			l6.598-31.573h9.012L181.81,184.535z"/>
	</g>
	<g>
		<path fill="#FFFFFF" d="M214.901,174.108h-18.7l-5.664,10.428h-9.978l26.681-47.183h10.782l7.66,47.183h-9.205L214.901,174.108z
			 M213.71,166.255l-2.736-18.989l-11.393,18.989H213.71z"/>
	</g>
	<g>
		<path fill="#FFFFFF" d="M223.816,184.535l9.848-47.183h9.72l-4.184,20.051l21.821-20.051h13.003l-21.177,18.506l15.545,28.677
			h-10.975l-11.651-22.465l-9.173,8.014l-3.025,14.451H223.816z"/>
	</g>
	<g>
		<path fill="#FFFFFF" d="M263.729,184.535l9.848-47.183h9.72l-4.184,20.051l21.821-20.051h13.003l-21.177,18.506l15.545,28.677
			H297.33l-11.651-22.465l-9.173,8.014l-3.025,14.451H263.729z"/>
	</g>
	<g>
		<path fill="#FFFFFF" d="M303.733,184.535l9.849-47.183h34.985l-1.642,7.885h-25.265l-2.253,10.718h24.428l-1.642,7.885h-24.428
			l-2.962,12.809h27.454l-1.674,7.885H303.733z"/>
	</g>
</g>
<!-- ® Symbol -->
<g>
	<circle fill="#FFFFFF" cx="263.218" cy="11.277" r="10.334"/>
	<path fill="#0f0f0f" d="M263.249,0c6.556,0,11.773,5.075,11.773,11.56c0,6.486-5.216,11.632-11.843,11.632
		c-6.627,0-11.913-5.146-11.913-11.632c0-6.485,5.287-11.56,11.913-11.56H263.249z M263.109,2.326c-5.005,0-8.882,4.159-8.882,9.234
		c0,5.146,3.877,9.235,9.023,9.235c5.005,0.07,8.811-4.089,8.811-9.164c0-5.146-3.806-9.305-8.882-9.305H263.109z M261.346,17.552
		h-2.678V5.991c1.057-0.141,2.538-0.352,4.441-0.352c2.185,0,3.172,0.352,3.947,0.917c0.705,0.493,1.199,1.339,1.199,2.468
		c0,1.41-1.058,2.326-2.397,2.749v0.141c1.128,0.352,1.692,1.268,2.045,2.819c0.352,1.763,0.634,2.397,0.845,2.82h-2.82
		c-0.352-0.423-0.563-1.41-0.916-2.82c-0.212-1.198-0.917-1.762-2.397-1.762h-1.269V17.552z M261.416,11.067h1.269
		c1.481,0,2.679-0.494,2.679-1.692c0-1.058-0.776-1.763-2.467-1.763c-0.705,0-1.199,0.07-1.481,0.141V11.067z"/>
</g>
</svg>
